<svg xmlns="http://www.w3.org/2000/svg" fill="none" viewBox="0 0 156 26" height="26" width="156">
<path fill="black" d="M0.112012 0.499998H3.89201L12.292 20.66H12.432L20.587 0.499998H22.407L12.467 25H10.367L0.112012 0.499998ZM29.0663 0.499998H32.2513V25H29.0663V0.499998ZM51.121 25H47.936V2.425H38.556V0.499998H60.501V2.425H51.121V25ZM74.4657 25H71.2807V2.425H61.9007V0.499998H83.8457V2.425H74.4657V25ZM88.7454 0.499998H104.565V2.425H91.9304V11.21H102.78V12.82H91.9304V23.075H104.565V25H88.7454V0.499998ZM109.8 25V0.499998H112.985V23.075H125.62V25H109.8ZM128.405 12.75C128.405 11.42 128.65 10.0083 129.14 8.515C129.653 7.02167 130.446 5.65667 131.52 4.42C132.593 3.16 133.958 2.12167 135.615 1.305C137.271 0.488333 139.255 0.0799996 141.565 0.0799996C143.898 0.0799996 145.916 0.499999 147.62 1.34C149.346 2.15667 150.77 3.195 151.89 4.455C153.01 5.715 153.838 7.09167 154.375 8.585C154.911 10.055 155.18 11.4433 155.18 12.75C155.18 13.6133 155.051 14.5233 154.795 15.48C154.561 16.4367 154.2 17.3933 153.71 18.35C153.243 19.2833 152.636 20.1817 151.89 21.045C151.143 21.885 150.256 22.6317 149.23 23.285C148.226 23.9383 147.083 24.4633 145.8 24.86C144.54 25.2333 143.128 25.42 141.565 25.42C139.255 25.42 137.271 25.0117 135.615 24.195C133.958 23.355 132.593 22.305 131.52 21.045C130.446 19.785 129.653 18.42 129.14 16.95C128.65 15.4567 128.405 14.0567 128.405 12.75ZM131.835 12.75C131.835 14.3833 132.08 15.8883 132.57 17.265C133.083 18.6183 133.771 19.785 134.635 20.765C135.521 21.745 136.56 22.515 137.75 23.075C138.94 23.6117 140.235 23.88 141.635 23.88C143.011 23.88 144.306 23.6117 145.52 23.075C146.756 22.515 147.83 21.745 148.74 20.765C149.673 19.785 150.408 18.6183 150.945 17.265C151.481 15.8883 151.75 14.3833 151.75 12.75C151.75 11.1167 151.481 9.62333 150.945 8.27C150.408 6.89333 149.673 5.715 148.74 4.735C147.83 3.755 146.756 2.99666 145.52 2.46C144.306 1.9 143.011 1.62 141.635 1.62C140.235 1.62 138.94 1.9 137.75 2.46C136.56 2.99666 135.521 3.755 134.635 4.735C133.771 5.715 133.083 6.89333 132.57 8.27C132.08 9.62333 131.835 11.1167 131.835 12.75Z"></path>
</svg>
